<?xml version="1.0" encoding="UTF-8" standalone="no"?>
<!DOCTYPE svg PUBLIC "-//W3C//DTD SVG 1.1//EN"
 "http://www.w3.org/Graphics/SVG/1.1/DTD/svg11.dtd">
<!-- Generated by graphviz version 2.47.0 (20210316.0004)
 -->
<!-- Pages: 1 -->
<svg width="1686pt" height="653pt"
 viewBox="0.00 0.00 1685.68 652.57" xmlns="http://www.w3.org/2000/svg" xmlns:xlink="http://www.w3.org/1999/xlink">
<g id="graph0" class="graph" transform="scale(1 1) rotate(0) translate(4 648.57)">
<polygon fill="white" stroke="transparent" points="-4,4 -4,-648.57 1681.68,-648.57 1681.68,4 -4,4"/>
<!-- &#45;314381777244791820 -->
<g id="node1" class="node">
<title>&#45;314381777244791820</title>
<ellipse fill="none" stroke="black" cx="837.84" cy="-473.12" rx="99.38" ry="99.38"/>
<text text-anchor="middle" x="837.84" y="-469.42" font-family="Times New Roman,serif" font-size="14.00">reduction_aggregate&#45;agg</text>
</g>
<!-- &#45;9067118526278549882 -->
<g id="node2" class="node">
<title>&#45;9067118526278549882</title>
<polygon fill="none" stroke="black" points="864.84,-644.57 810.84,-644.57 810.84,-608.57 864.84,-608.57 864.84,-644.57"/>
<text text-anchor="middle" x="837.84" y="-622.87" font-family="Times New Roman,serif" font-size="14.00">0</text>
</g>
<!-- &#45;314381777244791820&#45;&gt;&#45;9067118526278549882 -->
<g id="edge1" class="edge">
<title>&#45;314381777244791820&#45;&gt;&#45;9067118526278549882</title>
<path fill="none" stroke="black" d="M837.84,-572.6C837.84,-581.97 837.84,-590.82 837.84,-598.52"/>
<polygon fill="black" stroke="black" points="834.34,-598.55 837.84,-608.55 841.34,-598.55 834.34,-598.55"/>
</g>
<!-- 2837180428407866210 -->
<g id="node3" class="node">
<title>2837180428407866210</title>
<polygon fill="none" stroke="black" points="260.34,-337.68 199.34,-337.68 199.34,-301.68 260.34,-301.68 260.34,-337.68"/>
<text text-anchor="middle" x="229.84" y="-315.98" font-family="Times New Roman,serif" font-size="14.00">(0, 6, 0)</text>
</g>
<!-- 2837180428407866210&#45;&gt;&#45;314381777244791820 -->
<g id="edge2" class="edge">
<title>2837180428407866210&#45;&gt;&#45;314381777244791820</title>
<path fill="none" stroke="black" d="M260.41,-328.3C345.71,-349.54 589.4,-410.24 731.47,-445.63"/>
<polygon fill="black" stroke="black" points="730.97,-449.11 741.51,-448.13 732.66,-442.32 730.97,-449.11"/>
</g>
<!-- &#45;3733090549730867357 -->
<g id="node4" class="node">
<title>&#45;3733090549730867357</title>
<polygon fill="none" stroke="black" points="405.34,-337.68 344.34,-337.68 344.34,-301.68 405.34,-301.68 405.34,-337.68"/>
<text text-anchor="middle" x="374.84" y="-315.98" font-family="Times New Roman,serif" font-size="14.00">(0, 4, 0)</text>
</g>
<!-- &#45;3733090549730867357&#45;&gt;&#45;314381777244791820 -->
<g id="edge3" class="edge">
<title>&#45;3733090549730867357&#45;&gt;&#45;314381777244791820</title>
<path fill="none" stroke="black" d="M405.58,-330.74C471.29,-352.23 628.03,-403.5 733.58,-438.02"/>
<polygon fill="black" stroke="black" points="732.72,-441.42 743.31,-441.2 734.89,-434.77 732.72,-441.42"/>
</g>
<!-- &#45;1234131842382812029 -->
<g id="node5" class="node">
<title>&#45;1234131842382812029</title>
<polygon fill="none" stroke="black" points="617.34,-337.68 556.34,-337.68 556.34,-301.68 617.34,-301.68 617.34,-337.68"/>
<text text-anchor="middle" x="586.84" y="-315.98" font-family="Times New Roman,serif" font-size="14.00">(0, 1, 0)</text>
</g>
<!-- &#45;1234131842382812029&#45;&gt;&#45;314381777244791820 -->
<g id="edge4" class="edge">
<title>&#45;1234131842382812029&#45;&gt;&#45;314381777244791820</title>
<path fill="none" stroke="black" d="M615.15,-337.76C646.4,-356.62 698.38,-387.98 744.26,-415.66"/>
<polygon fill="black" stroke="black" points="742.68,-418.8 753.05,-420.97 746.3,-412.8 742.68,-418.8"/>
</g>
<!-- &#45;4427197178513842780 -->
<g id="node6" class="node">
<title>&#45;4427197178513842780</title>
<polygon fill="none" stroke="black" points="796.34,-337.68 735.34,-337.68 735.34,-301.68 796.34,-301.68 796.34,-337.68"/>
<text text-anchor="middle" x="765.84" y="-315.98" font-family="Times New Roman,serif" font-size="14.00">(0, 7, 0)</text>
</g>
<!-- &#45;4427197178513842780&#45;&gt;&#45;314381777244791820 -->
<g id="edge5" class="edge">
<title>&#45;4427197178513842780&#45;&gt;&#45;314381777244791820</title>
<path fill="none" stroke="black" d="M773.96,-337.76C778.49,-347.28 784.53,-359.98 791.09,-373.79"/>
<polygon fill="black" stroke="black" points="788.02,-375.47 795.47,-383 794.34,-372.47 788.02,-375.47"/>
</g>
<!-- &#45;6170148396471113050 -->
<g id="node7" class="node">
<title>&#45;6170148396471113050</title>
<polygon fill="none" stroke="black" points="941.34,-337.68 880.34,-337.68 880.34,-301.68 941.34,-301.68 941.34,-337.68"/>
<text text-anchor="middle" x="910.84" y="-315.98" font-family="Times New Roman,serif" font-size="14.00">(0, 5, 0)</text>
</g>
<!-- &#45;6170148396471113050&#45;&gt;&#45;314381777244791820 -->
<g id="edge6" class="edge">
<title>&#45;6170148396471113050&#45;&gt;&#45;314381777244791820</title>
<path fill="none" stroke="black" d="M902.61,-337.76C897.99,-347.34 891.82,-360.15 885.11,-374.07"/>
<polygon fill="black" stroke="black" points="881.82,-372.82 880.63,-383.35 888.13,-375.86 881.82,-372.82"/>
</g>
<!-- &#45;5843103284277423161 -->
<g id="node8" class="node">
<title>&#45;5843103284277423161</title>
<polygon fill="none" stroke="black" points="1120.34,-337.68 1059.34,-337.68 1059.34,-301.68 1120.34,-301.68 1120.34,-337.68"/>
<text text-anchor="middle" x="1089.84" y="-315.98" font-family="Times New Roman,serif" font-size="14.00">(0, 0, 0)</text>
</g>
<!-- &#45;5843103284277423161&#45;&gt;&#45;314381777244791820 -->
<g id="edge7" class="edge">
<title>&#45;5843103284277423161&#45;&gt;&#45;314381777244791820</title>
<path fill="none" stroke="black" d="M1061.42,-337.76C1029.98,-356.66 977.66,-388.1 931.53,-415.82"/>
<polygon fill="black" stroke="black" points="929.46,-412.98 922.69,-421.13 933.06,-418.98 929.46,-412.98"/>
</g>
<!-- &#45;6537209913060398584 -->
<g id="node9" class="node">
<title>&#45;6537209913060398584</title>
<polygon fill="none" stroke="black" points="1315.34,-337.68 1254.34,-337.68 1254.34,-301.68 1315.34,-301.68 1315.34,-337.68"/>
<text text-anchor="middle" x="1284.84" y="-315.98" font-family="Times New Roman,serif" font-size="14.00">(0, 3, 0)</text>
</g>
<!-- &#45;6537209913060398584&#45;&gt;&#45;314381777244791820 -->
<g id="edge8" class="edge">
<title>&#45;6537209913060398584&#45;&gt;&#45;314381777244791820</title>
<path fill="none" stroke="black" d="M1254.12,-331.09C1190.68,-352.58 1042.68,-402.73 941.39,-437.04"/>
<polygon fill="black" stroke="black" points="940.08,-433.79 931.73,-440.31 942.33,-440.42 940.08,-433.79"/>
</g>
<!-- 1569987520946719198 -->
<g id="node10" class="node">
<title>1569987520946719198</title>
<polygon fill="none" stroke="black" points="1519.34,-337.68 1458.34,-337.68 1458.34,-301.68 1519.34,-301.68 1519.34,-337.68"/>
<text text-anchor="middle" x="1488.84" y="-315.98" font-family="Times New Roman,serif" font-size="14.00">(0, 2, 0)</text>
</g>
<!-- 1569987520946719198&#45;&gt;&#45;314381777244791820 -->
<g id="edge9" class="edge">
<title>1569987520946719198&#45;&gt;&#45;314381777244791820</title>
<path fill="none" stroke="black" d="M1458.32,-327.78C1367.61,-348.88 1096.59,-411.93 944.45,-447.32"/>
<polygon fill="black" stroke="black" points="943.55,-443.94 934.61,-449.61 945.14,-450.76 943.55,-443.94"/>
</g>
<!-- 6955098841394453804 -->
<g id="node11" class="node">
<title>6955098841394453804</title>
<ellipse fill="none" stroke="black" cx="1156.84" cy="-168.84" rx="96.68" ry="96.68"/>
<text text-anchor="middle" x="1156.84" y="-165.14" font-family="Times New Roman,serif" font-size="14.00">reduction_chunk&#45;chunk</text>
</g>
<!-- 6955098841394453804&#45;&gt;&#45;5843103284277423161 -->
<g id="edge10" class="edge">
<title>6955098841394453804&#45;&gt;&#45;5843103284277423161</title>
<path fill="none" stroke="black" d="M1117.29,-257.71C1111.63,-270.27 1106.22,-282.3 1101.72,-292.3"/>
<polygon fill="black" stroke="black" points="1098.45,-291.02 1097.54,-301.58 1104.84,-293.9 1098.45,-291.02"/>
</g>
<!-- 8110513529439813119 -->
<g id="node12" class="node">
<title>8110513529439813119</title>
<polygon fill="none" stroke="black" points="1183.84,-36 1129.84,-36 1129.84,0 1183.84,0 1183.84,-36"/>
<text text-anchor="middle" x="1156.84" y="-14.3" font-family="Times New Roman,serif" font-size="14.00">0</text>
</g>
<!-- 8110513529439813119&#45;&gt;6955098841394453804 -->
<g id="edge11" class="edge">
<title>8110513529439813119&#45;&gt;6955098841394453804</title>
<path fill="none" stroke="black" d="M1156.84,-36.07C1156.84,-43.18 1156.84,-52.04 1156.84,-61.8"/>
<polygon fill="black" stroke="black" points="1153.34,-61.83 1156.84,-71.83 1160.34,-61.83 1153.34,-61.83"/>
</g>
<!-- 6603743391573143965 -->
<g id="node13" class="node">
<title>6603743391573143965</title>
<ellipse fill="none" stroke="black" cx="520.84" cy="-168.84" rx="96.68" ry="96.68"/>
<text text-anchor="middle" x="520.84" y="-165.14" font-family="Times New Roman,serif" font-size="14.00">reduction_chunk&#45;chunk</text>
</g>
<!-- 6603743391573143965&#45;&gt;&#45;1234131842382812029 -->
<g id="edge12" class="edge">
<title>6603743391573143965&#45;&gt;&#45;1234131842382812029</title>
<path fill="none" stroke="black" d="M559.81,-257.71C565.37,-270.27 570.71,-282.3 575.14,-292.3"/>
<polygon fill="black" stroke="black" points="572,-293.86 579.26,-301.58 578.4,-291.02 572,-293.86"/>
</g>
<!-- &#45;3828589788167740072 -->
<g id="node14" class="node">
<title>&#45;3828589788167740072</title>
<polygon fill="none" stroke="black" points="547.84,-36 493.84,-36 493.84,0 547.84,0 547.84,-36"/>
<text text-anchor="middle" x="520.84" y="-14.3" font-family="Times New Roman,serif" font-size="14.00">1</text>
</g>
<!-- &#45;3828589788167740072&#45;&gt;6603743391573143965 -->
<g id="edge13" class="edge">
<title>&#45;3828589788167740072&#45;&gt;6603743391573143965</title>
<path fill="none" stroke="black" d="M520.84,-36.07C520.84,-43.18 520.84,-52.04 520.84,-61.8"/>
<polygon fill="black" stroke="black" points="517.34,-61.83 520.84,-71.83 524.34,-61.83 517.34,-61.83"/>
</g>
<!-- &#45;1945273171634745896 -->
<g id="node15" class="node">
<title>&#45;1945273171634745896</title>
<ellipse fill="none" stroke="black" cx="1580.84" cy="-168.84" rx="96.68" ry="96.68"/>
<text text-anchor="middle" x="1580.84" y="-165.14" font-family="Times New Roman,serif" font-size="14.00">reduction_chunk&#45;chunk</text>
</g>
<!-- &#45;1945273171634745896&#45;&gt;1569987520946719198 -->
<g id="edge14" class="edge">
<title>&#45;1945273171634745896&#45;&gt;1569987520946719198</title>
<path fill="none" stroke="black" d="M1530.27,-251.66C1521.04,-266.59 1512.06,-281.11 1504.84,-292.8"/>
<polygon fill="black" stroke="black" points="1501.73,-291.18 1499.45,-301.52 1507.68,-294.86 1501.73,-291.18"/>
</g>
<!-- &#45;8721663817140436438 -->
<g id="node16" class="node">
<title>&#45;8721663817140436438</title>
<polygon fill="none" stroke="black" points="1607.84,-36 1553.84,-36 1553.84,0 1607.84,0 1607.84,-36"/>
<text text-anchor="middle" x="1580.84" y="-14.3" font-family="Times New Roman,serif" font-size="14.00">2</text>
</g>
<!-- &#45;8721663817140436438&#45;&gt;&#45;1945273171634745896 -->
<g id="edge15" class="edge">
<title>&#45;8721663817140436438&#45;&gt;&#45;1945273171634745896</title>
<path fill="none" stroke="black" d="M1580.84,-36.07C1580.84,-43.18 1580.84,-52.04 1580.84,-61.8"/>
<polygon fill="black" stroke="black" points="1577.34,-61.83 1580.84,-71.83 1584.34,-61.83 1577.34,-61.83"/>
</g>
<!-- 3651992200949310759 -->
<g id="node17" class="node">
<title>3651992200949310759</title>
<ellipse fill="none" stroke="black" cx="1368.84" cy="-168.84" rx="96.68" ry="96.68"/>
<text text-anchor="middle" x="1368.84" y="-165.14" font-family="Times New Roman,serif" font-size="14.00">reduction_chunk&#45;chunk</text>
</g>
<!-- 3651992200949310759&#45;&gt;&#45;6537209913060398584 -->
<g id="edge16" class="edge">
<title>3651992200949310759&#45;&gt;&#45;6537209913060398584</title>
<path fill="none" stroke="black" d="M1321.44,-253.83C1313.5,-267.91 1305.81,-281.52 1299.56,-292.61"/>
<polygon fill="black" stroke="black" points="1296.32,-291.22 1294.45,-301.65 1302.42,-294.66 1296.32,-291.22"/>
</g>
<!-- &#45;2214023061038438013 -->
<g id="node18" class="node">
<title>&#45;2214023061038438013</title>
<polygon fill="none" stroke="black" points="1395.84,-36 1341.84,-36 1341.84,0 1395.84,0 1395.84,-36"/>
<text text-anchor="middle" x="1368.84" y="-14.3" font-family="Times New Roman,serif" font-size="14.00">3</text>
</g>
<!-- &#45;2214023061038438013&#45;&gt;3651992200949310759 -->
<g id="edge17" class="edge">
<title>&#45;2214023061038438013&#45;&gt;3651992200949310759</title>
<path fill="none" stroke="black" d="M1368.84,-36.07C1368.84,-43.18 1368.84,-52.04 1368.84,-61.8"/>
<polygon fill="black" stroke="black" points="1365.34,-61.83 1368.84,-71.83 1372.34,-61.83 1365.34,-61.83"/>
</g>
<!-- &#45;4897024362258579102 -->
<g id="node19" class="node">
<title>&#45;4897024362258579102</title>
<ellipse fill="none" stroke="black" cx="308.84" cy="-168.84" rx="96.68" ry="96.68"/>
<text text-anchor="middle" x="308.84" y="-165.14" font-family="Times New Roman,serif" font-size="14.00">reduction_chunk&#45;chunk</text>
</g>
<!-- &#45;4897024362258579102&#45;&gt;&#45;3733090549730867357 -->
<g id="edge18" class="edge">
<title>&#45;4897024362258579102&#45;&gt;&#45;3733090549730867357</title>
<path fill="none" stroke="black" d="M347.81,-257.71C353.37,-270.27 358.71,-282.3 363.14,-292.3"/>
<polygon fill="black" stroke="black" points="360,-293.86 367.26,-301.58 366.4,-291.02 360,-293.86"/>
</g>
<!-- 6941289600714049109 -->
<g id="node20" class="node">
<title>6941289600714049109</title>
<polygon fill="none" stroke="black" points="335.84,-36 281.84,-36 281.84,0 335.84,0 335.84,-36"/>
<text text-anchor="middle" x="308.84" y="-14.3" font-family="Times New Roman,serif" font-size="14.00">4</text>
</g>
<!-- 6941289600714049109&#45;&gt;&#45;4897024362258579102 -->
<g id="edge19" class="edge">
<title>6941289600714049109&#45;&gt;&#45;4897024362258579102</title>
<path fill="none" stroke="black" d="M308.84,-36.07C308.84,-43.18 308.84,-52.04 308.84,-61.8"/>
<polygon fill="black" stroke="black" points="305.34,-61.83 308.84,-71.83 312.34,-61.83 305.34,-61.83"/>
</g>
<!-- 1152560781951870362 -->
<g id="node21" class="node">
<title>1152560781951870362</title>
<ellipse fill="none" stroke="black" cx="944.84" cy="-168.84" rx="96.68" ry="96.68"/>
<text text-anchor="middle" x="944.84" y="-165.14" font-family="Times New Roman,serif" font-size="14.00">reduction_chunk&#45;chunk</text>
</g>
<!-- 1152560781951870362&#45;&gt;&#45;6170148396471113050 -->
<g id="edge20" class="edge">
<title>1152560781951870362&#45;&gt;&#45;6170148396471113050</title>
<path fill="none" stroke="black" d="M923.41,-263.68C921.12,-273.69 918.95,-283.2 917.07,-291.4"/>
<polygon fill="black" stroke="black" points="913.61,-290.85 914.79,-301.38 920.43,-292.41 913.61,-290.85"/>
</g>
<!-- &#45;4997813716893504082 -->
<g id="node22" class="node">
<title>&#45;4997813716893504082</title>
<polygon fill="none" stroke="black" points="971.84,-36 917.84,-36 917.84,0 971.84,0 971.84,-36"/>
<text text-anchor="middle" x="944.84" y="-14.3" font-family="Times New Roman,serif" font-size="14.00">5</text>
</g>
<!-- &#45;4997813716893504082&#45;&gt;1152560781951870362 -->
<g id="edge21" class="edge">
<title>&#45;4997813716893504082&#45;&gt;1152560781951870362</title>
<path fill="none" stroke="black" d="M944.84,-36.07C944.84,-43.18 944.84,-52.04 944.84,-61.8"/>
<polygon fill="black" stroke="black" points="941.34,-61.83 944.84,-71.83 948.34,-61.83 941.34,-61.83"/>
</g>
<!-- 6077363916841773774 -->
<g id="node23" class="node">
<title>6077363916841773774</title>
<ellipse fill="none" stroke="black" cx="96.84" cy="-168.84" rx="96.68" ry="96.68"/>
<text text-anchor="middle" x="96.84" y="-165.14" font-family="Times New Roman,serif" font-size="14.00">reduction_chunk&#45;chunk</text>
</g>
<!-- 6077363916841773774&#45;&gt;2837180428407866210 -->
<g id="edge22" class="edge">
<title>6077363916841773774&#45;&gt;2837180428407866210</title>
<path fill="none" stroke="black" d="M161,-241.65C177.82,-260.46 194.83,-279.5 207.74,-293.95"/>
<polygon fill="black" stroke="black" points="205.19,-296.34 214.46,-301.47 210.41,-291.68 205.19,-296.34"/>
</g>
<!-- 1509827039208494343 -->
<g id="node24" class="node">
<title>1509827039208494343</title>
<polygon fill="none" stroke="black" points="123.84,-36 69.84,-36 69.84,0 123.84,0 123.84,-36"/>
<text text-anchor="middle" x="96.84" y="-14.3" font-family="Times New Roman,serif" font-size="14.00">6</text>
</g>
<!-- 1509827039208494343&#45;&gt;6077363916841773774 -->
<g id="edge23" class="edge">
<title>1509827039208494343&#45;&gt;6077363916841773774</title>
<path fill="none" stroke="black" d="M96.84,-36.07C96.84,-43.18 96.84,-52.04 96.84,-61.8"/>
<polygon fill="black" stroke="black" points="93.34,-61.83 96.84,-71.83 100.34,-61.83 93.34,-61.83"/>
</g>
<!-- &#45;9042950829789130939 -->
<g id="node25" class="node">
<title>&#45;9042950829789130939</title>
<ellipse fill="none" stroke="black" cx="732.84" cy="-168.84" rx="96.68" ry="96.68"/>
<text text-anchor="middle" x="732.84" y="-165.14" font-family="Times New Roman,serif" font-size="14.00">reduction_chunk&#45;chunk</text>
</g>
<!-- &#45;9042950829789130939&#45;&gt;&#45;4427197178513842780 -->
<g id="edge24" class="edge">
<title>&#45;9042950829789130939&#45;&gt;&#45;4427197178513842780</title>
<path fill="none" stroke="black" d="M753.65,-263.68C755.87,-273.69 757.97,-283.2 759.79,-291.4"/>
<polygon fill="black" stroke="black" points="756.42,-292.37 762,-301.38 763.26,-290.86 756.42,-292.37"/>
</g>
<!-- &#45;3383246989764202023 -->
<g id="node26" class="node">
<title>&#45;3383246989764202023</title>
<polygon fill="none" stroke="black" points="759.84,-36 705.84,-36 705.84,0 759.84,0 759.84,-36"/>
<text text-anchor="middle" x="732.84" y="-14.3" font-family="Times New Roman,serif" font-size="14.00">7</text>
</g>
<!-- &#45;3383246989764202023&#45;&gt;&#45;9042950829789130939 -->
<g id="edge25" class="edge">
<title>&#45;3383246989764202023&#45;&gt;&#45;9042950829789130939</title>
<path fill="none" stroke="black" d="M732.84,-36.07C732.84,-43.18 732.84,-52.04 732.84,-61.8"/>
<polygon fill="black" stroke="black" points="729.34,-61.83 732.84,-71.83 736.34,-61.83 729.34,-61.83"/>
</g>
</g>
</svg>
